<svg style="display: none;"><symbol viewBox="0 0 40 40" id="shape-elements_large_x"><title>elements_large_x</title> <g> <line fill="none" stroke="#000000" stroke-linecap="round" stroke-miterlimit="10" x1="4.8" y1="3.6" x2="35" y2="35.9"/> <line fill="none" stroke="#000000" stroke-linecap="round" stroke-miterlimit="10" x1="35" y1="3.6" x2="4.8" y2="35.9"/> </g> </symbol><symbol viewBox="0 0 1 1098" id="shape-elements_long_line"><title>elements_long_line</title> <line fill="none" stroke="#000000" stroke-miterlimit="10" stroke-dasharray="8,2,8,2,8,2" x1="0.5" y1="0" x2="0.5" y2="1098"/> </symbol><symbol viewBox="0 0 10 10" id="shape-elements_small_x"><title>elements_small_x</title> <g> <line fill="none" stroke="#000000" stroke-width="2" stroke-linecap="round" stroke-miterlimit="10" x1="2.2" y1="2" x2="7.9" y2="8"/> <line fill="none" stroke="#000000" stroke-width="2" stroke-linecap="round" stroke-miterlimit="10" x1="7.9" y1="2" x2="2.2" y2="8"/> </g> </symbol><symbol viewBox="79.1 0 14.2 29.4" id="shape-icn-facebook"><title>icn-facebook</title> <style type="text/css"> .st0{fill:#FFFFFF;} </style> <g> <path class="st0" d="M82.5,29.4h5.2V15.9h4.8l0.4-4.9h-5.2V7.3c0-1.4,0.3-2.5,2-2.5h3l0.2-4.6c0,0-1.5-0.3-3.5-0.3
		c-4.9,0-6.9,3.3-6.9,6.7V11h-3.5v4.9h3.5V29.4z"/> </g> </symbol><symbol viewBox="134.8 137.3 29 24.9" id="shape-icn-twitter"><title>icn-twitter</title> <style type="text/css"> .st0{fill:#FFFFFF;} </style> <path class="st0" d="M163.7,140.2c-1.1,0.5-2.2,0.9-3.4,1c1.2-0.8,2.2-2,2.6-3.5c-1.1,0.7-2.4,1.2-3.8,1.5c-1.1-1.2-2.7-2-4.4-2
	c-3.3,0-5.9,2.8-5.9,6.3c0,0.5,0,1,0.1,1.5c-4.9-0.3-9.3-2.7-12.2-6.5c-0.5,0.9-0.8,1.9-0.8,3.1c0,2.2,1,4.1,2.7,5.2
	c-1,0-1.9-0.3-2.7-0.8v0.1c0,3.1,2.1,5.6,4.8,6.2c-0.5,0.2-1,0.2-1.6,0.2c-0.4,0-0.7,0-1.1-0.1c0.7,2.5,3,4.3,5.5,4.4
	c-2,1.7-4.6,3-7.4,3c-0.5,0-0.9,0-1.4-0.1c2.6,1.8,5.8,2.6,9.1,2.6c10.9,0,16.9-9.6,16.9-17.9v-0.8
	C161.9,142.6,162.9,141.5,163.7,140.2"/> </symbol></svg>