<svg style="display: none;"><defs> <rect id="icon_instagram-SVGID_1_" x="1.6" y="2" width="20" height="20"/> </defs><symbol viewBox="0 0 40 40" id="shape-elements_large_x"><title>elements_large_x</title> <g> <line fill="none" stroke="#000000" stroke-linecap="round" stroke-miterlimit="10" x1="4.8" y1="3.6" x2="35" y2="35.9"/> <line fill="none" stroke="#000000" stroke-linecap="round" stroke-miterlimit="10" x1="35" y1="3.6" x2="4.8" y2="35.9"/> </g> </symbol><symbol viewBox="0 0 1 1098" id="shape-elements_long_line"><title>elements_long_line</title> <line fill="none" stroke="#000000" stroke-miterlimit="10" stroke-dasharray="8,2,8,2,8,2" x1="0.5" y1="0" x2="0.5" y2="1098"/> </symbol><symbol viewBox="0 0 10 10" id="shape-elements_small_x"><title>elements_small_x</title> <g> <line fill="none" stroke="#000000" stroke-width="2" stroke-linecap="round" stroke-miterlimit="10" x1="2.2" y1="2" x2="7.9" y2="8"/> <line fill="none" stroke="#000000" stroke-width="2" stroke-linecap="round" stroke-miterlimit="10" x1="7.9" y1="2" x2="2.2" y2="8"/> </g> </symbol><symbol viewBox="79.1 0 14.2 29.4" id="shape-icn-facebook"><title>icn-facebook</title> <style type="text/css"> .st0{fill:#FFFFFF;} </style> <g> <path class="st0" d="M82.5,29.4h5.2V15.9h4.8l0.4-4.9h-5.2V7.3c0-1.4,0.3-2.5,2-2.5h3l0.2-4.6c0,0-1.5-0.3-3.5-0.3
		c-4.9,0-6.9,3.3-6.9,6.7V11h-3.5v4.9h3.5V29.4z"/> </g> </symbol><symbol viewBox="134.8 137.3 29 24.9" id="shape-icn-twitter"><title>icn-twitter</title> <style type="text/css"> .st0{fill:#FFFFFF;} </style> <path class="st0" d="M163.7,140.2c-1.1,0.5-2.2,0.9-3.4,1c1.2-0.8,2.2-2,2.6-3.5c-1.1,0.7-2.4,1.2-3.8,1.5c-1.1-1.2-2.7-2-4.4-2
	c-3.3,0-5.9,2.8-5.9,6.3c0,0.5,0,1,0.1,1.5c-4.9-0.3-9.3-2.7-12.2-6.5c-0.5,0.9-0.8,1.9-0.8,3.1c0,2.2,1,4.1,2.7,5.2
	c-1,0-1.9-0.3-2.7-0.8v0.1c0,3.1,2.1,5.6,4.8,6.2c-0.5,0.2-1,0.2-1.6,0.2c-0.4,0-0.7,0-1.1-0.1c0.7,2.5,3,4.3,5.5,4.4
	c-2,1.7-4.6,3-7.4,3c-0.5,0-0.9,0-1.4-0.1c2.6,1.8,5.8,2.6,9.1,2.6c10.9,0,16.9-9.6,16.9-17.9v-0.8
	C161.9,142.6,162.9,141.5,163.7,140.2"/> </symbol><symbol viewBox="0 0 23.1 23.1" id="shape-icon_github"><title>icon_github</title> <path fill-rule="evenodd" clip-rule="evenodd" fill="#FFFFFF" d="M7.8,21.1c0.6,0.1,0.8-0.3,0.8-0.6c0-0.3,0-1.1,0-2.1
	c-3.4,0.7-4.1-1.6-4.1-1.6C3.9,15.4,3.1,15,3.1,15c-1.1-0.8,0.1-0.7,0.1-0.7C4.4,14.3,5,15.5,5,15.5c1.1,1.9,2.9,1.3,3.6,1
	c0.1-0.8,0.4-1.3,0.8-1.6c-2.7-0.3-5.6-1.4-5.6-6.1c0-1.3,0.5-2.4,1.3-3.3C4.9,5.2,4.5,3.9,5.2,2.2c0,0,1-0.3,3.4,1.3
	c1-0.3,2-0.4,3.1-0.4c1,0,2.1,0.1,3.1,0.4c2.3-1.6,3.4-1.3,3.4-1.3c0.7,1.7,0.2,2.9,0.1,3.3c0.8,0.9,1.3,2,1.3,3.3
	c0,4.7-2.9,5.8-5.6,6.1c0.4,0.4,0.8,1.1,0.8,2.3c0,1.6,0,3,0,3.4c0,0.3,0.2,0.7,0.8,0.6"/> </symbol><symbol viewBox="0 0 23.1 23.1" id="shape-icon_instagram"><title>icon_instagram</title> <g>  <clipPath id="icon_instagram-SVGID_2_"> <use xlink:href="#icon_instagram-SVGID_1_" overflow="visible"/> </clipPath> <path clip-path="url(#icon_instagram-SVGID_2_)" fill-rule="evenodd" clip-rule="evenodd" fill="#FFFFFF" d="M19.2,10.5h-1.7
		c0.1,0.5,0.2,1,0.2,1.5c0,3.4-2.8,6.1-6.1,6.1c-3.4,0-6.1-2.8-6.1-6.1c0-0.5,0.1-1,0.2-1.5H3.9v8.5c0,0.4,0.3,0.8,0.8,0.8h13.8
		c0.4,0,0.8-0.3,0.8-0.8V10.5z M19.2,5.1c0-0.4-0.3-0.8-0.8-0.8h-2.3c-0.4,0-0.8,0.3-0.8,0.8v2.3c0,0.4,0.3,0.8,0.8,0.8h2.3
		c0.4,0,0.8-0.3,0.8-0.8V5.1z M11.6,8.1c-2.1,0-3.8,1.7-3.8,3.8c0,2.1,1.7,3.8,3.8,3.8s3.8-1.7,3.8-3.8C15.4,9.9,13.7,8.1,11.6,8.1
		 M19.2,22H3.9c-1.3,0-2.3-1-2.3-2.3V4.3C1.6,3,2.6,2,3.9,2h15.4c1.3,0,2.3,1,2.3,2.3v15.4C21.5,20.9,20.5,22,19.2,22"/> </g> </symbol><symbol viewBox="0 0 23.1 23.1" id="shape-icon_mail"><title>icon_mail</title> <path fill="#FFFFFF" d="M2.4,2.6h18.4c0.3,0,0.6,0.1,0.9,0.2L11.6,14.6L1.5,2.8C1.8,2.7,2.1,2.6,2.4,2.6z M0.1,18.7V4.9
	c0,0,0-0.1,0-0.1l6.8,7.9l-6.7,6.7C0.1,19.1,0.1,18.9,0.1,18.7z M20.8,21H2.4c-0.2,0-0.4,0-0.6-0.1l6.6-6.6l3.3,3.8l3.3-3.8l6.6,6.6
	C21.2,21,21,21,20.8,21z M23.1,18.7c0,0.2,0,0.4-0.1,0.6l-6.7-6.7l6.8-7.9c0,0,0,0.1,0,0.1V18.7z"/> </symbol><symbol viewBox="0 0 23.1 23.1" id="shape-icon_twitter"><title>icon_twitter</title> <path fill="#FFFFFF" d="M23.1,4.5c-0.8,0.4-1.8,0.6-2.7,0.7c1-0.6,1.7-1.5,2.1-2.6c-0.9,0.5-1.9,0.9-3,1.1c-0.9-0.9-2.1-1.5-3.5-1.5
	c-2.6,0-4.7,2.1-4.7,4.7c0,0.4,0,0.7,0.1,1.1C7.5,7.9,4,6,1.7,3.2C1.3,3.9,1,4.7,1,5.6c0,1.6,0.8,3.1,2.1,3.9C2.4,9.5,1.6,9.3,1,8.9
	c0,0,0,0,0,0.1c0,2.3,1.6,4.2,3.8,4.6c-0.4,0.1-0.8,0.2-1.2,0.2c-0.3,0-0.6,0-0.9-0.1C3.3,15.6,5,16.9,7.1,17c-1.6,1.3-3.7,2-5.9,2
	c-0.4,0-0.8,0-1.1-0.1c2.1,1.3,4.6,2.1,7.3,2.1c8.7,0,13.5-7.2,13.5-13.5c0-0.2,0-0.4,0-0.6C21.7,6.3,22.5,5.5,23.1,4.5z"/> </symbol></svg>