<svg xmlns="http://www.w3.org/2000/svg" xmlns:xlink="http://www.w3.org/1999/xlink"><defs><path id="icon_instagram-a" d="M1.6 2h20v20h-20z"/></defs><symbol id="elements_large_x" viewBox="0 0 40 40"><g fill="none" stroke="#000" stroke-linecap="round" stroke-miterlimit="10"><path d="M4.8 3.6L35 35.9M35 3.6L4.8 35.9"/></g></symbol><symbol id="elements_long_line" viewBox="0 0 1 1098"><path fill="none" stroke="#000" stroke-miterlimit="10" stroke-dasharray="8,2,8,2,8,2" d="M.5 0v1098"/></symbol><symbol id="elements_small_x" viewBox="0 0 10 10"><g fill="none" stroke="#000" stroke-width="2" stroke-linecap="round" stroke-miterlimit="10"><path d="M2.2 2l5.7 6M7.9 2L2.2 8"/></g></symbol><symbol id="icn-facebook" viewBox="79.1 0 14.2 29.4"><style>.st0{fill:#FFFFFF;}</style><path class="st0" d="M82.5 29.4h5.2V15.9h4.8l.4-4.9h-5.2V7.3c0-1.4.3-2.5 2-2.5h3l.2-4.6s-1.5-.3-3.5-.3c-4.9 0-6.9 3.3-6.9 6.7V11H79v4.9h3.5v13.5z"/></symbol><symbol id="icn-twitter" viewBox="134.8 137.3 29 24.9"><style>.st0{fill:#FFFFFF;}</style><path class="st0" d="M163.7 140.2c-1.1.5-2.2.9-3.4 1 1.2-.8 2.2-2 2.6-3.5-1.1.7-2.4 1.2-3.8 1.5-1.1-1.2-2.7-2-4.4-2-3.3 0-5.9 2.8-5.9 6.3 0 .5 0 1 .1 1.5-4.9-.3-9.3-2.7-12.2-6.5-.5.9-.8 1.9-.8 3.1 0 2.2 1 4.1 2.7 5.2-1 0-1.9-.3-2.7-.8v.1c0 3.1 2.1 5.6 4.8 6.2-.5.2-1 .2-1.6.2-.4 0-.7 0-1.1-.1.7 2.5 3 4.3 5.5 4.4-2 1.7-4.6 3-7.4 3-.5 0-.9 0-1.4-.1 2.6 1.8 5.8 2.6 9.1 2.6 10.9 0 16.9-9.6 16.9-17.9v-.8c1.2-1 2.2-2.1 3-3.4"/></symbol><symbol id="icon_github" viewBox="0 0 23.1 23.1"><path fill-rule="evenodd" clip-rule="evenodd" fill="#FFF" d="M7.8 21.1c.6.1.8-.3.8-.6v-2.1c-3.4.7-4.1-1.6-4.1-1.6-.6-1.4-1.4-1.8-1.4-1.8-1.1-.8.1-.7.1-.7 1.2 0 1.8 1.2 1.8 1.2 1.1 1.9 2.9 1.3 3.6 1 .1-.8.4-1.3.8-1.6-2.7-.3-5.6-1.4-5.6-6.1 0-1.3.5-2.4 1.3-3.3-.2-.3-.6-1.6.1-3.3 0 0 1-.3 3.4 1.3 1-.3 2-.4 3.1-.4 1 0 2.1.1 3.1.4 2.3-1.6 3.4-1.3 3.4-1.3.7 1.7.2 2.9.1 3.3.8.9 1.3 2 1.3 3.3 0 4.7-2.9 5.8-5.6 6.1.4.4.8 1.1.8 2.3v3.4c0 .3.2.7.8.6"/></symbol><symbol id="icon_instagram" viewBox="0 0 23.1 23.1"><clipPath id="icon_instagram-b"><use xlink:href="#icon_instagram-a" overflow="visible"/></clipPath><path clip-path="url(#icon_instagram-b)" fill-rule="evenodd" clip-rule="evenodd" fill="#FFF" d="M19.2 10.5h-1.7c.1.5.2 1 .2 1.5 0 3.4-2.8 6.1-6.1 6.1-3.4 0-6.1-2.8-6.1-6.1 0-.5.1-1 .2-1.5H3.9V19c0 .4.3.8.8.8h13.8c.4 0 .8-.3.8-.8v-8.5zm0-5.4c0-.4-.3-.8-.8-.8h-2.3c-.4 0-.8.3-.8.8v2.3c0 .4.3.8.8.8h2.3c.4 0 .8-.3.8-.8V5.1zm-7.6 3c-2.1 0-3.8 1.7-3.8 3.8 0 2.1 1.7 3.8 3.8 3.8s3.8-1.7 3.8-3.8c0-2-1.7-3.8-3.8-3.8M19.2 22H3.9c-1.3 0-2.3-1-2.3-2.3V4.3C1.6 3 2.6 2 3.9 2h15.4c1.3 0 2.3 1 2.3 2.3v15.4c-.1 1.2-1.1 2.3-2.4 2.3"/></symbol><symbol id="icon_mail" viewBox="0 0 23.1 23.1"><path fill="#FFF" d="M2.4 2.6h18.4c.3 0 .6.1.9.2L11.6 14.6 1.5 2.8c.3-.1.6-.2.9-.2zM.1 18.7V4.9v-.1l6.8 7.9-6.7 6.7c-.1-.3-.1-.5-.1-.7zM20.8 21H2.4c-.2 0-.4 0-.6-.1l6.6-6.6 3.3 3.8 3.3-3.8 6.6 6.6c-.4.1-.6.1-.8.1zm2.3-2.3c0 .2 0 .4-.1.6l-6.7-6.7 6.8-7.9v14z"/></symbol><symbol id="icon_twitter" viewBox="0 0 23.1 23.1"><path fill="#FFF" d="M23.1 4.5c-.8.4-1.8.6-2.7.7 1-.6 1.7-1.5 2.1-2.6-.9.5-1.9.9-3 1.1-.9-.9-2.1-1.5-3.5-1.5-2.6 0-4.7 2.1-4.7 4.7 0 .4 0 .7.1 1.1C7.5 7.9 4 6 1.7 3.2c-.4.7-.7 1.5-.7 2.4 0 1.6.8 3.1 2.1 3.9-.7 0-1.5-.2-2.1-.6V9c0 2.3 1.6 4.2 3.8 4.6-.4.1-.8.2-1.2.2-.3 0-.6 0-.9-.1.6 1.9 2.3 3.2 4.4 3.3-1.6 1.3-3.7 2-5.9 2-.4 0-.8 0-1.1-.1C2.2 20.2 4.7 21 7.4 21c8.7 0 13.5-7.2 13.5-13.5v-.6c.8-.6 1.6-1.4 2.2-2.4z"/></symbol></svg>