<svg width="16" height="16" viewBox="0 0 16 16" fill="none" xmlns="http://www.w3.org/2000/svg">
<rect width="16" height="16" rx="2" fill="#3465E1"/>
<path fill-rule="evenodd" clip-rule="evenodd" d="M7.58333 12.5503C7.44629 12.5643 7.30729 12.5714 7.16666 12.5714C4.86548 12.5714 3 10.6526 3 8.28571C3 5.91878 4.86548 4 7.16666 4C9.18245 4 10.8639 5.47236 11.25 7.42856L7.83974 7.42856V6.57142C7.83974 6.33473 7.59579 6.14285 7.29487 6.14285C6.99394 6.14285 6.75 6.33473 6.75 6.57142V9.99999C6.75 10.2367 6.99394 10.4286 7.29487 10.4286C7.59579 10.4286 7.83974 10.2367 7.83974 9.99999V8.2857H13V9.57146H12.1667V12.5715H11.0386C11.0355 12.5542 11.0315 12.5368 11.0266 12.5195C10.8772 11.9872 10.1226 11.9872 9.97327 12.5195C9.9684 12.5368 9.96442 12.5542 9.9613 12.5715H7.58333V12.5503Z" fill="white"/>
</svg>
