<?xml version="1.0" encoding="utf-8"?>
<!-- Generator: Adobe Illustrator 18.1.1, SVG Export Plug-In . SVG Version: 6.00 Build 0)  -->
<!DOCTYPE svg PUBLIC "-//W3C//DTD SVG 1.1//EN" "http://www.w3.org/Graphics/SVG/1.1/DTD/svg11.dtd">
<svg version="1.1" id="Layer_1" xmlns="http://www.w3.org/2000/svg" xmlns:xlink="http://www.w3.org/1999/xlink" x="0px" y="0px"
	 viewBox="0 0 23.1 23.1" enable-background="new 0 0 23.1 23.1" xml:space="preserve">
<path fill="#FFFFFF" d="M2.4,2.6h18.4c0.3,0,0.6,0.1,0.9,0.2L11.6,14.6L1.5,2.8C1.8,2.7,2.1,2.6,2.4,2.6z M0.1,18.7V4.9
	c0,0,0-0.1,0-0.1l6.8,7.9l-6.7,6.7C0.1,19.1,0.1,18.9,0.1,18.7z M20.8,21H2.4c-0.2,0-0.4,0-0.6-0.1l6.6-6.6l3.3,3.8l3.3-3.8l6.6,6.6
	C21.2,21,21,21,20.8,21z M23.1,18.7c0,0.2,0,0.4-0.1,0.6l-6.7-6.7l6.8-7.9c0,0,0,0.1,0,0.1V18.7z"/>
</svg>
