<?xml version="1.0" encoding="utf-8"?>
<!-- Generator: Adobe Illustrator 19.2.0, SVG Export Plug-In . SVG Version: 6.00 Build 0)  -->
<svg version="1.1" id="Layer_1" xmlns="http://www.w3.org/2000/svg" xmlns:xlink="http://www.w3.org/1999/xlink" x="0px" y="0px"
	 width="23.1px" height="23.1px" viewBox="0 0 23.1 23.1" style="enable-background:new 0 0 23.1 23.1;" xml:space="preserve">
<style type="text/css">
	.st0{fill:#FFFFFF;}
</style>
<g>
	<g>
		<path class="st0" d="M19.2,10.5h-1.7c0.1,0.5,0.2,1,0.2,1.5c0,3.4-2.8,6.1-6.1,6.1c-3.4,0-6.1-2.8-6.1-6.1c0-0.5,0.1-1,0.2-1.5
			H3.9V19c0,0.4,0.3,0.8,0.8,0.8h13.8c0.4,0,0.8-0.3,0.8-0.8L19.2,10.5L19.2,10.5z M19.2,5.1c0-0.4-0.3-0.8-0.8-0.8h-2.3
			c-0.4,0-0.8,0.3-0.8,0.8v2.3c0,0.4,0.3,0.8,0.8,0.8h2.3c0.4,0,0.8-0.3,0.8-0.8V5.1z M11.6,8.1c-2.1,0-3.8,1.7-3.8,3.8
			s1.7,3.8,3.8,3.8s3.8-1.7,3.8-3.8C15.4,9.9,13.7,8.1,11.6,8.1 M19.2,22H3.9c-1.3,0-2.3-1-2.3-2.3V4.3C1.6,3,2.6,2,3.9,2h15.4
			c1.3,0,2.3,1,2.3,2.3v15.4C21.5,20.9,20.5,22,19.2,22"/>
	</g>
</g>
</svg>
