<svg class="gcs-icon {% if include.className %}{{ include.className }}{% endif %}"  version="1.1" id="Layer_1" xmlns="http://www.w3.org/2000/svg" xmlns:xlink="http://www.w3.org/1999/xlink" x="0px" y="0px"
   viewBox="0 0 23.1 23.1" enable-background="new 0 0 23.1 23.1" xml:space="preserve">
<path fill="currentColor" d="M23.1,4.5c-0.8,0.4-1.8,0.6-2.7,0.7c1-0.6,1.7-1.5,2.1-2.6c-0.9,0.5-1.9,0.9-3,1.1c-0.9-0.9-2.1-1.5-3.5-1.5
  c-2.6,0-4.7,2.1-4.7,4.7c0,0.4,0,0.7,0.1,1.1C7.5,7.9,4,6,1.7,3.2C1.3,3.9,1,4.7,1,5.6c0,1.6,0.8,3.1,2.1,3.9C2.4,9.5,1.6,9.3,1,8.9
  c0,0,0,0,0,0.1c0,2.3,1.6,4.2,3.8,4.6c-0.4,0.1-0.8,0.2-1.2,0.2c-0.3,0-0.6,0-0.9-0.1C3.3,15.6,5,16.9,7.1,17c-1.6,1.3-3.7,2-5.9,2
  c-0.4,0-0.8,0-1.1-0.1c2.1,1.3,4.6,2.1,7.3,2.1c8.7,0,13.5-7.2,13.5-13.5c0-0.2,0-0.4,0-0.6C21.7,6.3,22.5,5.5,23.1,4.5z"/>
</svg>
